{"asset": {"version": "2.0", "generator": "Pymesh gltf converter"}, "accessors": [{"bufferView": 0, "byteOffset": 0, "componentType": 5126, "count": 8.0, "type": "VEC3", "max": [0.5, 0.5, 0.5], "min": [-0.5, -0.5, -0.5]}, {"bufferView": 1, "byteOffset": 0, "componentType": 5123, "count": 36, "type": "SCALAR", "max": [7], "min": [0]}], "bufferViews": [{"buffer": 0, "byteOffset": 0, "byteLength": 96, "target": 34962}, {"buffer": 1, "byteOffset": 0, "byteLength": 72, "target": 34963}], "buffers": [{"uri": "data:application/octet-stream;base64,", "byteLength": 96}, {"uri": "data:application/octet-stream;base64,", "byteLength": 72}], "meshes": [{"primitives": [{"mode": 4, "attributes": {"POSITION": 0}, "indices": 1}]}], "nodes": [{"mesh": 0}], "scenes": [{"nodes": [0]}], "scene": 0}